<svg width="200" height="200" viewBox="0 0 200 200" fill="none" xmlns="http://www.w3.org/2000/svg">
<mask id="mask0_446_80" style="mask-type:alpha" maskUnits="userSpaceOnUse" x="0" y="0" width="200" height="200">
<rect width="200" height="200" fill="#D9D9D9"/>
</mask>
<g mask="url(#mask0_446_80)">
<path d="M48.7501 142.501C55.8335 137.084 63.7501 132.813 72.5001 129.688C81.2501 126.563 90.4168 125.001 100 125.001C109.583 125.001 118.75 126.563 127.5 129.688C136.25 132.813 144.167 137.084 151.25 142.501C156.111 136.806 159.896 130.348 162.604 123.126C165.313 115.903 166.667 108.195 166.667 100.001C166.667 81.5283 160.174 65.7992 147.188 52.8131C134.202 39.827 118.472 33.3339 100 33.3339C81.5279 33.3339 65.7988 39.827 52.8126 52.8131C39.8265 65.7992 33.3335 81.5283 33.3335 100.001C33.3335 108.195 34.6876 115.903 37.396 123.126C40.1043 130.348 43.889 136.806 48.7501 142.501ZM100 108.334C91.8057 108.334 84.896 105.521 79.271 99.8964C73.646 94.2714 70.8335 87.3617 70.8335 79.1672C70.8335 70.9728 73.646 64.0631 79.271 58.4381C84.896 52.8131 91.8057 50.0006 100 50.0006C108.195 50.0006 115.104 52.8131 120.729 58.4381C126.354 64.0631 129.167 70.9728 129.167 79.1672C129.167 87.3617 126.354 94.2714 120.729 99.8964C115.104 105.521 108.195 108.334 100 108.334ZM100 183.334C88.4724 183.334 77.639 181.146 67.5001 176.771C57.3613 172.396 48.5418 166.459 41.0418 158.959C33.5418 151.459 27.6043 142.639 23.2293 132.501C18.8543 122.362 16.6668 111.528 16.6668 100.001C16.6668 88.4728 18.8543 77.6395 23.2293 67.5006C27.6043 57.3617 33.5418 48.5422 41.0418 41.0422C48.5418 33.5422 57.3613 27.6047 67.5001 23.2297C77.639 18.8547 88.4724 16.6672 100 16.6672C111.528 16.6672 122.361 18.8547 132.5 23.2297C142.639 27.6047 151.458 33.5422 158.958 41.0422C166.458 48.5422 172.396 57.3617 176.771 67.5006C181.146 77.6395 183.333 88.4728 183.333 100.001C183.333 111.528 181.146 122.362 176.771 132.501C172.396 142.639 166.458 151.459 158.958 158.959C151.458 166.459 142.639 172.396 132.5 176.771C122.361 181.146 111.528 183.334 100 183.334ZM100 166.667C107.361 166.667 114.306 165.591 120.833 163.438C127.361 161.285 133.333 158.195 138.75 154.167C133.333 150.139 127.361 147.049 120.833 144.896C114.306 142.744 107.361 141.667 100 141.667C92.639 141.667 85.6946 142.744 79.1668 144.896C72.639 147.049 66.6668 150.139 61.2501 154.167C66.6668 158.195 72.639 161.285 79.1668 163.438C85.6946 165.591 92.639 166.667 100 166.667ZM100 91.6672C103.611 91.6672 106.597 90.4867 108.958 88.1256C111.32 85.7645 112.5 82.7783 112.5 79.1672C112.5 75.5561 111.32 72.57 108.958 70.2089C106.597 67.8478 103.611 66.6672 100 66.6672C96.389 66.6672 93.4029 67.8478 91.0418 70.2089C88.6807 72.57 87.5001 75.5561 87.5001 79.1672C87.5001 82.7783 88.6807 85.7645 91.0418 88.1256C93.4029 90.4867 96.389 91.6672 100 91.6672Z" fill="#DDE1E9"/>
</g>
</svg>
