<svg width="200" height="200" viewBox="0 0 200 200" fill="none" xmlns="http://www.w3.org/2000/svg">
<mask id="mask0_446_71" style="mask-type:alpha" maskUnits="userSpaceOnUse" x="0" y="0" width="200" height="200">
<rect width="200" height="200" fill="#D9D9D9"/>
</mask>
<g mask="url(#mask0_446_71)">
<path d="M41.6667 183.334C37.0833 183.334 33.1597 181.702 29.8958 178.438C26.6319 175.174 25 171.251 25 166.667V50.0006C25 45.4172 26.6319 41.4936 29.8958 38.2297C33.1597 34.9658 37.0833 33.3339 41.6667 33.3339H50V16.6672H66.6667V33.3339H133.333V16.6672H150V33.3339H158.333C162.917 33.3339 166.84 34.9658 170.104 38.2297C173.368 41.4936 175 45.4172 175 50.0006V166.667C175 171.251 173.368 175.174 170.104 178.438C166.84 181.702 162.917 183.334 158.333 183.334H41.6667ZM41.6667 166.667H158.333V83.3339H41.6667V166.667ZM41.6667 66.6672H158.333V50.0006H41.6667V66.6672ZM100 116.667C97.6389 116.667 95.6597 115.869 94.0625 114.271C92.4653 112.674 91.6667 110.695 91.6667 108.334C91.6667 105.973 92.4653 103.994 94.0625 102.396C95.6597 100.799 97.6389 100.001 100 100.001C102.361 100.001 104.34 100.799 105.938 102.396C107.535 103.994 108.333 105.973 108.333 108.334C108.333 110.695 107.535 112.674 105.938 114.271C104.34 115.869 102.361 116.667 100 116.667ZM66.6667 116.667C64.3056 116.667 62.3264 115.869 60.7292 114.271C59.1319 112.674 58.3333 110.695 58.3333 108.334C58.3333 105.973 59.1319 103.994 60.7292 102.396C62.3264 100.799 64.3056 100.001 66.6667 100.001C69.0278 100.001 71.0069 100.799 72.6042 102.396C74.2014 103.994 75 105.973 75 108.334C75 110.695 74.2014 112.674 72.6042 114.271C71.0069 115.869 69.0278 116.667 66.6667 116.667ZM133.333 116.667C130.972 116.667 128.993 115.869 127.396 114.271C125.799 112.674 125 110.695 125 108.334C125 105.973 125.799 103.994 127.396 102.396C128.993 100.799 130.972 100.001 133.333 100.001C135.694 100.001 137.674 100.799 139.271 102.396C140.868 103.994 141.667 105.973 141.667 108.334C141.667 110.695 140.868 112.674 139.271 114.271C137.674 115.869 135.694 116.667 133.333 116.667ZM100 150.001C97.6389 150.001 95.6597 149.202 94.0625 147.605C92.4653 146.008 91.6667 144.028 91.6667 141.667C91.6667 139.306 92.4653 137.327 94.0625 135.73C95.6597 134.133 97.6389 133.334 100 133.334C102.361 133.334 104.34 134.133 105.938 135.73C107.535 137.327 108.333 139.306 108.333 141.667C108.333 144.028 107.535 146.008 105.938 147.605C104.34 149.202 102.361 150.001 100 150.001ZM66.6667 150.001C64.3056 150.001 62.3264 149.202 60.7292 147.605C59.1319 146.008 58.3333 144.028 58.3333 141.667C58.3333 139.306 59.1319 137.327 60.7292 135.73C62.3264 134.133 64.3056 133.334 66.6667 133.334C69.0278 133.334 71.0069 134.133 72.6042 135.73C74.2014 137.327 75 139.306 75 141.667C75 144.028 74.2014 146.008 72.6042 147.605C71.0069 149.202 69.0278 150.001 66.6667 150.001ZM133.333 150.001C130.972 150.001 128.993 149.202 127.396 147.605C125.799 146.008 125 144.028 125 141.667C125 139.306 125.799 137.327 127.396 135.73C128.993 134.133 130.972 133.334 133.333 133.334C135.694 133.334 137.674 134.133 139.271 135.73C140.868 137.327 141.667 139.306 141.667 141.667C141.667 144.028 140.868 146.008 139.271 147.605C137.674 149.202 135.694 150.001 133.333 150.001Z" fill="#62C6FF"/>
</g>
</svg>
