<svg width="200" height="200" viewBox="0 0 200 200" fill="none" xmlns="http://www.w3.org/2000/svg">
<mask id="mask0_446_77" style="mask-type:alpha" maskUnits="userSpaceOnUse" x="0" y="0" width="200" height="200">
<rect width="200" height="200" fill="#D9D9D9"/>
</mask>
<g mask="url(#mask0_446_77)">
<path d="M66.6666 150.001C62.0833 150.001 58.1597 148.369 54.8958 145.105C51.6319 141.841 49.9999 137.917 49.9999 133.334V116.667H66.6666V133.334H166.667V50.0006H66.6666V66.6672H49.9999V33.3339C49.9999 28.7506 51.6319 24.827 54.8958 21.5631C58.1597 18.2992 62.0833 16.6672 66.6666 16.6672H166.667C171.25 16.6672 175.174 18.2992 178.437 21.5631C181.701 24.827 183.333 28.7506 183.333 33.3339V133.334C183.333 137.917 181.701 141.841 178.437 145.105C175.174 148.369 171.25 150.001 166.667 150.001H66.6666ZM33.3333 183.334C28.7499 183.334 24.8263 181.702 21.5624 178.438C18.2985 175.174 16.6666 171.251 16.6666 166.667V50.0006H33.3333V166.667H150V183.334H33.3333ZM108.333 125.001L96.6666 113.334L109.792 100.001H49.9999V83.3339H109.792L96.6666 70.0006L108.333 58.3339L141.667 91.6672L108.333 125.001Z" fill="#62C6FF"/>
</g>
</svg>
